<?xml version="1.0" standalone="no"?>
<!DOCTYPE svg PUBLIC "-//W3C//DTD SVG 20010904//EN"
 "http://www.w3.org/TR/2001/REC-SVG-20010904/DTD/svg10.dtd">
<svg version="1.0" xmlns="http://www.w3.org/2000/svg"
 width="89.000000pt" height="89.000000pt" viewBox="0 0 89.000000 89.000000"
 preserveAspectRatio="xMidYMid meet">
<metadata>
Created by potrace 1.11, written by Peter Selinger 2001-2013
</metadata>
<g transform="translate(0.000000,89.000000) scale(0.100000,-0.100000)"
fill="#000000" stroke="none">
<path d="M420 699 c0 -11 5 -17 10 -14 18 11 33 -52 17 -72 -5 -7 -6 -13 -2
-13 4 0 2 -7 -5 -15 -7 -8 -9 -15 -4 -15 5 0 4 -4 -1 -8 -6 -4 -26 -41 -44
-82 -19 -41 -39 -78 -44 -81 -5 -3 -8 -8 -7 -10 1 -2 -3 -17 -9 -32 -6 -16
-11 -33 -11 -38 0 -5 -4 -9 -10 -9 -5 0 -16 -16 -24 -35 -19 -44 -47 -46 -77
-4 -41 58 -25 130 22 101 25 -16 36 -15 43 3 8 21 -54 36 -72 18 -8 -7 -19
-10 -25 -6 -7 3 -9 3 -5 -2 4 -4 1 -13 -7 -19 -21 -15 -31 -82 -16 -110 27
-50 122 -71 191 -43 19 8 47 13 63 12 28 -4 37 9 13 18 -15 6 -15 10 -3 62 7
26 12 30 42 30 41 -1 51 -9 60 -53 6 -28 3 -33 -17 -41 -27 -11 -23 -12 57
-16 70 -2 83 2 58 20 -10 7 -19 18 -19 24 -1 6 -3 13 -4 16 -1 3 -3 8 -5 13
-1 4 -5 15 -10 25 -11 25 -3 28 28 12 15 -8 27 -11 27 -7 1 4 6 -3 13 -14 l12
-21 45 29 c31 21 38 28 21 24 -13 -3 -39 1 -58 9 -18 8 -33 11 -33 8 0 -3 -6
0 -13 6 -8 6 -17 8 -20 4 -7 -6 -12 22 -7 42 1 6 3 16 4 23 1 8 9 17 16 22 8
5 12 11 9 14 -7 7 -59 -17 -59 -27 0 -5 -4 -5 -10 -2 -5 3 -10 1 -10 -4 0 -6
7 -11 15 -11 11 0 15 -9 13 -30 -3 -40 -19 -33 -37 16 -9 21 -19 41 -23 42
-14 6 -9 53 10 85 22 40 62 85 62 71 0 -7 11 -9 25 -6 14 2 25 8 25 12 0 9
-180 100 -197 100 -7 0 -13 -9 -13 -21z m53 -309 c9 -33 8 -34 -10 -36 -27 -4
-33 5 -21 31 14 30 24 32 31 5z"/>
</g>
</svg>
